<?xml version="1.0" standalone="no"?>
<!DOCTYPE svg PUBLIC "-//W3C//DTD SVG 20010904//EN"
 "http://www.w3.org/TR/2001/REC-SVG-20010904/DTD/svg10.dtd">
<svg version="1.0" xmlns="http://www.w3.org/2000/svg"
 width="1280.000000pt" height="1222.000000pt" viewBox="0 0 1280.000000 1222.000000"
 preserveAspectRatio="xMidYMid meet">
<metadata>
Created by potrace 1.15, written by Peter Selinger 2001-2017
</metadata>
<g transform="translate(0.000000,1222.000000) scale(0.100000,-0.100000)"
fill="#000000" stroke="none">
<path d="M7416 12113 c-47 -212 -178 -914 -237 -1276 -8 -49 -16 -72 -20 -60
-4 12 -9 -1 -14 -37 -4 -30 -11 -64 -16 -75 -7 -16 -8 -14 -5 10 3 17 7 93 10
170 6 164 4 156 -54 -180 -38 -221 -132 -863 -146 -993 -13 -122 -15 -51 -5
199 17 437 23 674 17 668 -4 -3 -20 -100 -37 -215 -31 -214 -43 -275 -34 -169
7 82 16 783 11 770 -21 -45 -104 -939 -136 -1465 -6 -96 -19 -301 -30 -455
-11 -154 -29 -426 -40 -605 -19 -324 -68 -941 -74 -947 -2 -2 -6 92 -10 209
-3 117 -11 330 -17 473 -9 201 -9 273 0 315 22 98 26 895 7 1405 -9 248 -21
581 -26 740 -14 388 -57 1089 -79 1275 -7 64 -7 63 -17 -65 -13 -192 -11
-1935 4 -2270 18 -415 23 -561 18 -550 -3 6 -12 116 -21 245 -44 648 -128
1500 -149 1500 -14 0 12 -1216 30 -1425 3 -38 4 -68 1 -65 -3 3 -17 113 -31
245 -75 681 -236 1849 -253 1831 -2 -2 1 -122 7 -266 7 -144 10 -263 8 -265
-2 -3 -11 37 -19 88 -47 303 15 -594 81 -1177 11 -93 18 -171 17 -173 -2 -1
-18 79 -36 180 -45 249 -130 669 -137 676 -3 3 -3 -21 0 -54 4 -33 13 -139 21
-235 9 -96 18 -197 20 -225 9 -94 -4 -30 -40 190 -78 478 -237 1286 -251 1272
-5 -4 18 -224 42 -400 9 -65 14 -120 12 -122 -2 -2 -25 94 -52 213 -93 423
-205 866 -181 717 3 -16 12 -88 20 -160 50 -432 193 -1329 311 -1954 19 -101
33 -185 31 -187 -2 -3 -20 58 -39 133 -61 238 -112 416 -116 405 -6 -19 64
-387 139 -727 38 -171 157 -647 219 -875 16 -58 43 -179 60 -270 40 -212 161
-791 206 -984 19 -82 33 -150 31 -152 -2 -2 -24 65 -49 149 -25 83 -64 211
-86 282 -23 72 -55 193 -72 270 -78 354 -300 1148 -316 1132 -5 -5 82 -388
115 -507 21 -74 25 -97 17 -89 -12 11 -179 551 -211 679 -130 518 -345 1249
-544 1850 -112 334 -222 643 -228 637 -5 -6 132 -550 206 -817 33 -118 58
-216 57 -218 -2 -1 -25 55 -51 125 -83 224 -178 463 -182 459 -5 -5 74 -309
156 -606 33 -118 59 -216 57 -217 -2 -2 -20 42 -42 96 -21 55 -40 98 -42 96
-5 -5 73 -276 148 -520 79 -252 249 -756 349 -1032 44 -123 117 -332 162 -465
45 -134 119 -351 165 -482 47 -131 82 -241 80 -243 -2 -3 -7 6 -11 19 -28 91
-470 1176 -645 1583 -28 66 -103 254 -166 418 -164 424 -409 1005 -421 994 -2
-3 17 -62 42 -132 24 -71 43 -130 42 -132 -2 -2 -30 54 -62 124 -94 207 -404
846 -416 858 -26 26 270 -780 510 -1387 45 -114 80 -212 77 -216 -3 -5 15 -62
39 -127 25 -65 45 -121 45 -124 0 -3 -60 116 -133 264 -139 281 -335 655 -361
690 -28 36 169 -436 335 -803 145 -321 310 -662 491 -1018 170 -337 222 -444
213 -444 -2 0 -60 109 -129 243 -68 133 -177 339 -241 457 -64 118 -151 287
-193 375 -125 262 -346 703 -422 846 -120 224 -253 459 -258 455 -2 -2 35 -89
83 -193 47 -103 89 -195 92 -203 3 -8 -33 48 -79 125 -79 131 -177 284 -212
330 -28 37 225 -517 356 -779 38 -76 67 -140 65 -142 -2 -2 -30 42 -62 98 -78
137 -291 487 -316 518 -23 29 13 -48 133 -285 183 -361 495 -918 693 -1235 39
-63 129 -223 200 -355 135 -254 351 -651 392 -722 14 -24 23 -43 20 -43 -3 0
-38 53 -78 118 -40 64 -140 222 -222 351 -82 129 -214 343 -294 475 -472 779
-919 1464 -1403 2148 -19 26 -35 46 -37 44 -3 -3 64 -130 124 -236 41 -73 14
-37 -127 165 -152 217 -396 553 -418 575 -44 44 362 -648 666 -1135 313 -501
765 -1188 1072 -1630 84 -121 198 -292 253 -380 160 -255 375 -588 578 -891
103 -155 185 -285 182 -288 -3 -3 5 -23 19 -43 13 -21 33 -51 42 -68 l18 -30
-22 25 c-12 14 -96 117 -188 229 -91 112 -236 285 -322 385 -85 99 -225 273
-309 386 -290 385 -747 949 -1075 1325 -169 193 -416 465 -423 465 -2 0 12
-24 33 -52 78 -108 85 -122 38 -68 -27 30 -121 136 -208 234 -178 200 -435
476 -443 476 -6 0 10 -22 131 -180 388 -508 1054 -1291 1416 -1665 137 -141
485 -555 467 -555 -2 0 -66 73 -143 162 -511 596 -1186 1330 -1839 2003 -250
257 -594 592 -544 530 9 -11 71 -90 139 -175 215 -269 594 -718 929 -1100 l66
-75 -56 50 c-31 28 -143 132 -250 232 -107 100 -207 192 -223 204 -65 51 184
-248 479 -574 231 -256 244 -276 75 -112 -367 355 -969 913 -1375 1276 -246
219 -664 579 -710 612 -27 19 -26 17 9 -23 249 -284 925 -978 1516 -1556 129
-126 220 -218 203 -204 -17 14 -155 129 -305 256 -295 249 -691 570 -723 585
-28 14 422 -430 735 -725 146 -138 303 -286 350 -330 113 -106 91 -91 -135 94
-331 270 -896 708 -1075 834 -93 65 476 -458 808 -743 72 -63 132 -116 132
-118 0 -2 -8 2 -17 9 -10 7 -108 80 -218 162 -481 360 -1142 826 -1105 781 37
-46 658 -580 1044 -899 222 -183 811 -655 1049 -840 97 -76 177 -139 177 -141
0 -2 -136 85 -302 194 -417 272 -931 592 -898 559 21 -21 377 -303 535 -423
181 -137 182 -141 10 -29 -829 539 -1710 1076 -2275 1387 -80 43 -48 17 165
-139 629 -460 1696 -1175 2490 -1669 204 -127 334 -212 350 -228 6 -6 -10 1
-35 15 -227 129 -434 239 -415 220 13 -12 194 -132 313 -206 50 -32 92 -60 92
-63 0 -3 -10 1 -22 9 -191 125 -1362 771 -2023 1115 -418 219 -1192 599 -1201
590 -11 -11 1180 -732 1374 -831 19 -10 32 -20 29 -22 -3 -3 -27 6 -54 19 -78
40 -485 218 -489 215 -1 -2 76 -50 172 -107 96 -58 172 -106 170 -108 -2 -3
-19 3 -36 12 -59 31 -263 116 -267 111 -5 -5 370 -218 682 -388 402 -220 736
-393 1245 -645 679 -336 1079 -537 1076 -540 -2 -2 -34 11 -71 28 -115 52
-487 201 -491 196 -2 -2 106 -57 240 -123 134 -65 243 -120 242 -121 -2 -2
-29 8 -62 21 -114 46 -621 229 -864 311 -135 46 -429 153 -655 238 -225 85
-502 187 -615 227 -442 156 -1146 387 -1155 378 -2 -2 94 -46 213 -98 119 -52
251 -112 292 -134 138 -71 407 -184 978 -412 1075 -428 1727 -670 2454 -910
97 -32 176 -60 174 -62 -13 -12 -376 98 -981 297 -902 298 -2452 723 -3175
872 -52 11 -104 22 -115 25 -16 4 -17 3 -5 -5 49 -31 970 -331 1437 -468 89
-26 161 -48 159 -50 -2 -2 -145 28 -317 66 -637 142 -1594 330 -1607 316 -9
-8 721 -225 1118 -331 91 -25 136 -40 120 -43 -52 -8 373 -115 1095 -276 257
-57 587 -139 525 -129 -19 2 -141 22 -270 44 -431 72 -739 110 -556 69 127
-28 31 -17 -250 30 -518 87 -1181 186 -1709 255 -397 52 -974 117 -1030 115
l-30 -1 30 -8 c442 -112 1635 -346 2505 -490 102 -17 300 -53 440 -80 140 -27
272 -52 293 -56 90 -16 17 -11 -181 11 -796 90 -1786 175 -2377 205 -115 5
-246 12 -289 15 -43 2 -76 2 -73 -1 3 -3 81 -18 173 -35 945 -164 2472 -346
3774 -450 74 -5 140 -12 145 -14 20 -7 -73 -5 -180 5 -135 12 -642 45 -905 60
-564 30 -902 44 -1465 60 -364 11 -1342 14 -1333 4 7 -7 469 -57 728 -79 301
-25 325 -32 111 -34 -101 0 -182 -4 -179 -7 25 -25 1075 -87 1714 -101 181 -5
313 -9 294 -10 -19 -2 -78 -6 -130 -10 l-95 -7 90 -7 c50 -4 126 -8 170 -9 52
-1 71 -5 55 -9 -23 -7 -23 -8 -5 -14 11 -3 74 -9 140 -14 66 -4 111 -8 100
-10 -11 -1 -180 -9 -375 -18 -443 -19 -805 -40 -1160 -65 -308 -23 -701 -58
-707 -64 -23 -22 1897 -28 2542 -8 204 7 444 15 535 18 91 4 162 4 159 0 -5
-6 -148 -16 -489 -36 -537 -31 -1483 -127 -1615 -165 -27 -7 -120 -21 -205
-30 -454 -48 -1211 -153 -1229 -171 -3 -3 26 -3 64 0 39 3 142 8 230 12 88 3
248 12 355 19 192 13 249 13 153 0 -40 -6 -558 -92 -671 -112 -76 -13 -9 -13
234 2 721 44 1671 142 2607 271 262 36 371 42 172 10 -218 -35 -1339 -257
-1370 -271 -5 -2 22 -2 60 0 94 7 74 0 -75 -25 -313 -52 -1237 -246 -1226
-258 11 -10 560 67 956 134 411 70 429 70 105 -1 -559 -123 -1577 -376 -1650
-410 -38 -18 569 77 1055 166 429 78 1125 219 1558 315 112 25 206 44 208 42
2 -3 -20 -10 -49 -17 -124 -32 -730 -208 -932 -271 -330 -104 -355 -112 -350
-119 2 -4 -166 -58 -373 -120 -410 -122 -1021 -324 -957 -315 58 8 497 106
730 163 454 111 785 198 1310 346 143 40 276 75 295 79 35 6 34 6 -5 -8 -22
-8 -121 -39 -220 -69 -580 -177 -1352 -439 -1848 -627 -76 -29 -136 -54 -134
-56 2 -2 84 17 183 42 419 105 942 253 1441 408 117 36 216 66 220 65 9 0 -2
-5 -392 -149 -358 -133 -783 -298 -1065 -413 -304 -124 -600 -250 -596 -255 4
-3 173 45 406 114 232 69 673 211 985 315 176 59 321 106 323 105 1 -2 -46
-22 -105 -46 -501 -199 -1703 -727 -1740 -764 -14 -14 485 154 852 287 99 36
263 95 365 130 102 36 229 81 284 101 109 40 110 40 101 26 -3 -5 13 -2 37 6
24 9 111 39 193 69 288 101 1022 386 1249 484 27 12 50 20 52 18 2 -2 -74 -39
-169 -82 -418 -190 -1017 -485 -1332 -656 -82 -44 -269 -144 -415 -221 -297
-158 -690 -374 -705 -389 -41 -40 1331 562 1667 732 93 47 79 28 -22 -30 -49
-29 -90 -54 -90 -56 0 -10 336 144 715 327 165 80 404 194 530 254 127 60 380
184 563 275 184 92 330 163 325 159 -4 -5 -98 -59 -208 -121 -544 -306 -1159
-681 -1455 -889 -36 -25 -135 -88 -220 -140 -377 -228 -951 -598 -990 -637
-59 -61 849 460 1485 850 363 223 533 323 510 300 -5 -6 -104 -72 -220 -148
-200 -131 -469 -316 -490 -338 -29 -29 368 204 630 371 216 137 521 342 660
442 66 48 192 131 279 184 218 133 551 343 729 459 81 53 147 95 147 93 0 -2
-44 -37 -97 -77 -54 -40 -200 -152 -324 -249 -252 -194 -539 -396 -789 -553
-689 -432 -1812 -1236 -2473 -1770 -132 -107 -172 -143 -135 -121 195 116
1165 767 1306 877 6 5 12 7 12 5 0 -3 -38 -35 -85 -72 -47 -37 -85 -70 -85
-72 0 -2 40 22 89 55 49 33 95 62 103 63 19 4 202 126 368 246 194 140 178
129 160 110 -8 -8 -82 -69 -165 -134 -807 -635 -1750 -1436 -2384 -2022 -54
-50 -24 -31 169 107 498 356 1018 751 1675 1274 328 261 327 258 -47 -80 -381
-345 -691 -637 -983 -927 -278 -276 -278 -279 4 -58 185 145 295 234 646 522
105 86 237 194 295 240 204 164 518 427 789 659 150 130 283 243 295 251 31
22 -273 -298 -614 -645 -354 -360 -416 -426 -375 -397 17 11 46 36 64 56 19
20 39 36 45 36 6 0 -10 -20 -34 -45 -94 -96 -26 -45 165 123 219 193 215 188
-120 -175 -358 -388 -801 -890 -1005 -1139 -60 -74 -62 -76 -20 -40 252 220
1116 1070 1669 1641 l243 250 -184 -215 c-459 -536 -911 -1092 -1162 -1425
l-98 -130 209 210 c114 116 298 307 407 425 202 219 268 287 250 260 -6 -8
-39 -52 -73 -98 -35 -46 -61 -85 -59 -87 4 -4 288 299 500 535 228 253 551
626 795 917 108 128 197 233 200 233 2 0 -41 -55 -95 -122 -268 -333 -808
-1043 -1113 -1463 -274 -377 -699 -992 -699 -1010 0 -4 34 33 76 82 112 130
114 129 27 -2 -108 -163 -154 -235 -148 -235 21 0 664 808 980 1230 59 80 113
150 118 155 12 11 11 10 -113 -185 -112 -176 -133 -210 -127 -210 13 0 366
457 567 735 148 205 187 250 90 105 -211 -315 -928 -1510 -906 -1510 4 0 189
246 295 393 35 48 66 87 68 87 3 0 -1 -10 -9 -23 -115 -176 -663 -1136 -758
-1327 -36 -72 -3 -31 165 210 275 393 643 954 965 1470 84 135 157 250 163
255 6 6 1 -6 -10 -25 -83 -140 -366 -687 -345 -665 59 61 520 811 791 1286 83
145 155 271 161 279 5 8 -59 -124 -144 -295 -84 -170 -197 -402 -251 -515 -54
-113 -193 -401 -310 -640 -117 -239 -239 -491 -270 -560 -108 -235 -195 -433
-192 -436 3 -3 57 84 166 271 39 66 71 117 71 114 0 -4 -12 -33 -26 -65 -67
-150 -55 -138 54 54 166 293 285 516 495 927 115 226 206 403 204 395 -3 -8
-31 -75 -61 -149 -31 -74 -55 -135 -53 -137 3 -3 154 269 191 344 9 17 18 32
20 32 2 0 -43 -109 -101 -242 -233 -537 -521 -1254 -509 -1265 3 -3 25 35 50
83 48 96 111 208 103 184 -3 -8 -45 -116 -93 -240 -113 -293 -235 -632 -229
-638 4 -5 271 534 330 666 15 34 30 61 32 59 2 -2 -15 -52 -37 -110 -154 -411
-416 -1164 -408 -1173 5 -4 188 387 309 658 198 445 459 1067 670 1601 108
273 149 359 94 197 -14 -40 -23 -75 -21 -77 2 -2 28 52 57 121 29 69 54 124
55 123 1 -1 -64 -200 -145 -442 -198 -595 -340 -1050 -481 -1540 -69 -238
-140 -508 -136 -512 1 -2 45 102 97 231 52 129 95 233 97 232 1 -2 -9 -45 -23
-96 -13 -52 -21 -89 -16 -84 9 9 139 341 228 579 46 124 59 151 48 100 -25
-116 147 364 280 785 53 168 161 501 240 740 78 239 168 519 200 622 32 104
60 186 62 184 2 -1 -30 -124 -71 -272 -211 -760 -460 -1771 -606 -2464 -64
-303 -120 -590 -119 -610 3 -59 349 1095 539 1800 81 301 128 458 129 432 1
-7 -10 -57 -23 -110 -86 -338 -255 -1181 -243 -1215 3 -10 70 234 126 458 85
340 194 854 246 1150 14 83 28 164 31 180 4 23 3 26 -5 15 -20 -28 -12 8 58
263 38 139 75 276 82 304 26 105 19 40 -15 -148 -61 -334 -137 -825 -135 -872
1 -13 6 -3 14 23 7 25 13 42 14 38 1 -4 -19 -126 -43 -270 -118 -705 -205
-1307 -261 -1823 -14 -126 8 -44 94 345 129 588 304 1547 392 2152 12 87 24
156 26 154 3 -2 -12 -134 -31 -293 -92 -745 -181 -1655 -215 -2218 -6 -93 -13
-204 -17 -245 -3 -41 -3 -72 1 -69 3 4 24 105 45 225 22 121 42 224 44 229 2
6 2 -51 0 -125 -2 -74 -2 -130 0 -125 16 34 179 1080 227 1457 7 54 14 96 16
94 2 -2 -3 -109 -11 -237 -27 -423 -48 -1056 -35 -1041 19 20 119 934 159
1447 35 452 37 446 39 -104 0 -283 3 -512 6 -509 3 3 14 94 26 204 11 109 22
204 24 209 2 6 1 -116 -1 -270 -3 -154 -1 -309 4 -345 8 -64 9 -62 17 80 7
116 10 136 16 100 4 -25 8 -97 9 -160 1 -63 5 -137 9 -165 6 -47 7 -45 14 45
31 398 52 831 67 1394 6 203 12 371 13 373 2 2 7 -102 10 -229 9 -314 67
-1480 92 -1868 14 -200 44 -582 63 -775 l6 -70 7 50 c4 28 10 266 14 530 10
646 -14 1743 -55 2495 -6 102 -12 232 -15 290 l-4 105 9 -90 c6 -49 21 -225
35 -390 55 -645 150 -1522 226 -2085 50 -374 107 -751 114 -759 6 -6 1 185
-16 548 -5 118 -8 215 -6 217 2 2 21 -103 42 -234 21 -130 42 -244 47 -252 7
-12 8 -10 4 5 -9 40 -15 381 -6 350 27 -90 -41 738 -91 1109 -18 137 -4 92 30
-92 18 -97 41 -215 52 -262 l19 -85 -4 95 -4 95 14 -75 c8 -41 44 -239 80
-440 109 -604 320 -1629 340 -1649 3 -3 3 17 -1 44 -3 28 -17 163 -31 300 -34
336 -112 956 -170 1349 l-4 31 15 -35 c15 -34 15 -35 11 -5 -3 17 -8 57 -11
90 -13 127 -68 502 -115 790 -27 165 -52 316 -55 335 -3 19 30 -106 74 -279
103 -404 113 -420 61 -101 -17 101 -29 188 -28 192 2 5 18 -57 36 -139 54
-242 224 -925 312 -1253 112 -422 267 -952 269 -924 4 50 -184 1009 -299 1523
-38 173 -69 316 -67 317 2 2 16 -39 31 -92 16 -52 31 -92 33 -90 3 3 -9 71
-27 151 -17 81 -30 149 -28 151 2 2 21 -49 42 -112 21 -64 40 -114 42 -112 6
7 -103 487 -181 793 -76 298 -187 705 -250 912 -25 83 -32 120 -25 127 8 8 9
5 4 -9 -4 -11 -3 -17 1 -12 5 4 48 -104 95 -240 108 -306 177 -492 194 -518 7
-11 73 -200 146 -420 198 -597 409 -1196 580 -1650 108 -288 292 -746 297
-741 5 5 -47 200 -139 521 -300 1052 -807 2548 -1185 3500 -82 205 -277 774
-269 782 1 2 33 -70 71 -160 38 -89 122 -283 188 -432 65 -148 168 -387 227
-530 323 -777 611 -1436 882 -2020 203 -438 678 -1408 686 -1401 5 6 -108 318
-240 661 -202 526 -464 1162 -796 1930 -156 362 -221 510 -464 1065 -128 292
-342 763 -452 995 -37 77 -63 135 -58 130 5 -6 74 -116 153 -245 79 -129 204
-333 278 -452 75 -120 193 -324 263 -455 223 -420 706 -1274 953 -1688 281
-468 652 -1051 663 -1041 2 3 -8 26 -23 51 -31 53 -28 72 4 23 48 -76 14 -2
-106 225 -210 403 -453 839 -711 1277 -156 266 -157 270 -18 73 83 -118 120
-160 78 -90 -38 64 -105 192 -95 182 6 -5 52 -68 102 -138 140 -196 282 -387
288 -387 2 0 -10 26 -28 58 -197 350 -384 663 -657 1102 -9 14 -13 23 -10 20
4 -3 101 -147 216 -320 418 -629 806 -1171 1211 -1692 79 -103 146 -186 148
-184 8 8 -286 471 -511 806 -160 238 -152 225 -136 215 16 -10 25 -26 -107
183 -56 89 -101 162 -99 162 2 0 58 -69 124 -152 123 -157 163 -204 437 -524
189 -221 219 -254 209 -234 -4 8 -80 123 -169 255 -212 315 -439 636 -717
1013 -75 101 -28 50 128 -140 362 -441 824 -984 1169 -1373 197 -222 595 -655
602 -655 23 0 -597 821 -1036 1370 -184 229 -206 259 -155 205 471 -500 663
-695 609 -620 -183 255 -631 798 -1319 1600 -33 39 -69 81 -80 95 -12 13 56
-50 149 -140 94 -91 218 -208 275 -260 57 -52 257 -246 445 -430 320 -315 663
-640 730 -692 31 -23 -9 27 -145 182 -36 41 -98 114 -138 162 -89 107 -252
286 -394 435 -60 61 -108 114 -108 118 0 4 48 -38 108 -93 191 -178 442 -398
442 -388 0 10 -275 308 -512 556 -118 124 -421 428 -673 675 -252 248 -625
616 -829 819 l-371 368 205 -174 c113 -96 302 -255 420 -353 118 -99 262 -223
320 -275 574 -523 1375 -1197 1865 -1569 83 -63 157 -119 165 -125 35 -24 -89
99 -280 277 -267 250 -312 294 -275 269 17 -12 158 -117 315 -234 266 -199
505 -373 540 -393 33 -19 -283 272 -565 519 -225 198 -229 202 -125 131 47
-32 78 -50 70 -40 -45 54 -622 546 -1030 877 -113 91 -304 248 -425 348 -121
101 -335 275 -475 388 -369 297 -367 300 10 22 884 -653 1934 -1374 2794
-1919 151 -96 606 -376 679 -418 4 -2 7 -2 7 1 0 9 -293 237 -626 486 -187
140 -354 265 -370 278 l-29 23 40 -22 c22 -12 36 -18 30 -12 -46 48 -646 481
-1015 734 -328 224 -326 222 -50 61 266 -154 264 -146 -10 44 -197 137 -333
226 -605 399 -157 99 -607 405 -630 428 -9 9 178 -87 200 -103 22 -16 423
-220 431 -220 26 0 -465 314 -896 572 -173 105 -317 192 -320 195 -16 17 133
-67 325 -182 227 -136 548 -317 832 -469 197 -104 753 -383 843 -421 36 -15
198 -89 360 -163 322 -147 378 -172 388 -172 20 0 -449 267 -763 435 -132 70
-253 138 -270 151 -37 28 -364 211 -590 331 -325 173 -941 476 -1422 701 -90
41 -162 77 -160 78 2 2 129 -48 283 -110 194 -79 393 -170 654 -301 849 -425
1876 -891 2820 -1280 392 -161 929 -369 936 -362 6 6 -411 221 -736 380 -474
232 -1118 532 -1563 727 -53 24 -96 45 -93 47 2 2 48 -14 103 -36 116 -46 282
-105 368 -131 33 -10 201 -70 373 -134 499 -185 1252 -444 1252 -430 0 15
-861 396 -1332 590 -92 37 -166 69 -165 71 2 1 82 -22 178 -53 137 -43 414
-126 634 -190 56 -17 -17 20 -162 82 -89 37 -161 69 -160 71 2 1 25 -4 52 -12
26 -8 50 -13 52 -11 7 6 -429 176 -682 266 -126 45 -378 138 -560 206 -181 69
-430 162 -552 206 -123 45 -222 83 -220 84 1 2 161 -44 354 -101 300 -89 591
-171 1113 -315 563 -156 1752 -448 1782 -438 28 10 -1471 512 -1700 570 -23 6
-41 12 -39 15 3 2 51 -7 108 -21 613 -148 1165 -268 1670 -366 297 -57 348
-66 338 -56 -3 3 -128 43 -279 90 -1040 320 -2523 696 -3740 946 -58 12 -235
53 -395 90 -297 70 -690 156 -850 185 -127 23 -227 46 -222 51 2 2 163 -28
358 -66 195 -39 548 -104 784 -146 237 -41 520 -93 630 -114 252 -49 364 -69
700 -125 149 -24 428 -71 620 -104 612 -104 1081 -176 1642 -250 322 -43 854
-103 860 -98 4 4 -128 36 -362 88 -103 23 -142 35 -125 39 20 5 15 8 -30 18
-30 6 -147 31 -260 56 -509 110 -1023 207 -1675 315 -345 57 -521 85 -1195
186 -349 53 -523 82 -498 84 9 0 95 -6 190 -14 95 -8 259 -19 363 -25 105 -6
260 -19 345 -30 543 -68 1362 -144 1930 -180 247 -15 566 -30 624 -29 l51 1
-75 14 c-460 85 -1540 206 -2505 279 -324 25 -470 41 -400 44 17 0 95 -4 175
-9 640 -42 1990 -76 1990 -50 0 7 213 10 618 11 339 1 651 5 692 9 41 4 64 8
50 8 -14 1 -110 11 -215 22 -207 21 -582 52 -850 71 -93 6 -208 15 -255 19
l-85 7 110 2 c231 2 791 24 803 31 15 7 -43 12 -418 35 -693 41 -1749 51
-3150 30 -596 -9 -711 -8 -980 7 -168 9 -375 21 -460 25 l-155 8 230 12 c135
8 320 10 450 7 360 -10 1921 38 2500 77 264 17 529 41 575 50 63 13 91 16 385
40 296 23 715 66 723 74 3 3 -111 5 -254 5 -455 0 -1165 -28 -1859 -75 -198
-13 -421 -26 -495 -28 l-135 -5 110 13 c61 7 216 20 345 29 587 41 1155 98
1505 151 l160 24 -245 -6 c-135 -3 -288 -5 -340 -4 -195 4 -931 -39 -1528 -89
-129 -11 -244 -19 -255 -19 -45 3 85 18 288 33 785 60 1622 162 2386 292 300
51 365 66 249 59 -159 -10 -602 -48 -752 -64 -86 -9 -155 -14 -152 -10 2 3 25
9 51 13 154 20 978 185 969 193 -18 18 -1345 -132 -1875 -212 -57 -8 -106 -14
-108 -12 -2 2 52 16 119 31 68 14 184 42 258 61 74 19 214 53 310 74 267 59
495 113 499 117 31 29 -963 -141 -1439 -247 -74 -17 -202 -41 -285 -55 -82
-14 -236 -40 -341 -59 -269 -49 -262 -42 16 15 129 26 307 64 395 84 88 21
223 51 300 67 314 67 381 83 639 146 148 37 264 69 258 71 -30 10 -709 -122
-1047 -203 -82 -20 -253 -59 -380 -86 -281 -60 -688 -160 -681 -166 2 -3 64 5
136 17 215 36 156 18 -93 -29 -447 -84 -1183 -247 -1127 -250 8 0 62 6 120 14
118 15 143 13 49 -6 -36 -7 -56 -15 -46 -18 9 -3 -128 -26 -303 -51 -176 -25
-316 -42 -312 -39 10 8 111 37 342 99 107 28 269 74 360 100 91 27 293 80 450
119 157 38 404 104 550 146 146 41 366 98 490 126 502 113 1376 339 1950 505
406 117 1018 309 1034 324 22 21 -917 -189 -1349 -301 -116 -30 -150 -32 -65
-4 28 9 49 19 47 22 -6 6 -306 -63 -556 -128 -106 -28 -195 -48 -197 -46 -3 2
23 12 57 21 110 31 637 206 959 318 452 157 890 323 805 304 -207 -47 -668
-172 -1235 -334 -173 -50 -398 -114 -500 -142 -102 -28 -304 -88 -450 -132
-347 -105 -463 -138 -467 -134 -2 2 45 23 104 46 60 24 216 90 348 147 132 57
348 145 480 195 413 156 942 374 932 384 -14 14 -912 -307 -1267 -453 -128
-53 -540 -196 -547 -190 -1 2 109 47 245 101 258 103 725 306 719 313 -3 2
-41 -10 -86 -26 -44 -16 -81 -28 -81 -25 0 2 43 24 95 49 52 24 95 46 95 49 0
5 -167 -51 -324 -108 -54 -20 -101 -36 -105 -36 -3 1 107 57 244 125 138 69
239 122 225 120 -14 -3 18 17 70 44 52 28 92 50 89 50 -22 2 -548 -218 -799
-334 -80 -37 -246 -111 -370 -165 -124 -54 -260 -114 -304 -134 -43 -20 -81
-36 -85 -36 -3 0 93 52 214 114 121 63 294 155 385 205 91 50 273 144 405 208
569 277 1465 746 1451 761 -7 6 -513 -216 -861 -378 -312 -146 -1085 -536
-1350 -681 -222 -122 -374 -198 -435 -220 -37 -13 -15 1 149 91 79 44 176 100
215 126 39 25 161 95 271 156 302 166 836 480 870 510 15 14 -34 -6 -115 -47
-40 -20 -74 -35 -76 -33 -2 2 85 57 194 123 218 132 572 354 572 360 0 5 -91
-35 -212 -95 -90 -44 -105 -45 -42 -2 11 6 -32 -13 -95 -44 -62 -30 -114 -54
-116 -52 -2 2 65 47 148 100 215 137 216 142 7 35 -397 -203 -1021 -566 -1411
-822 -195 -128 -245 -159 -534 -330 -384 -227 -765 -467 -758 -478 3 -6 1 -7
-5 -3 -7 4 -12 3 -12 -2 0 -8 -149 -82 -200 -99 -8 -3 82 53 200 124 756 456
1580 986 2175 1400 287 199 513 363 503 363 -6 0 -310 -167 -395 -217 -62 -36
-53 -22 15 22 94 63 422 296 422 301 0 6 -51 -24 -235 -135 -254 -153 -560
-354 -825 -542 -120 -84 -360 -235 -360 -226 0 2 35 28 78 58 207 143 692 503
692 515 0 3 -17 -5 -37 -17 -103 -62 -328 -202 -405 -252 -49 -31 -88 -55 -88
-53 0 2 51 41 113 86 197 145 694 527 947 729 257 204 580 470 580 476 0 5
-166 -99 -252 -157 -32 -21 -58 -37 -58 -35 0 3 55 51 123 107 135 114 162
138 137 125 -8 -5 -121 -79 -250 -166 -445 -297 -1113 -786 -1740 -1271 -140
-109 -381 -292 -535 -407 -154 -116 -333 -250 -397 -298 -64 -48 -208 -155
-320 -238 -111 -82 -273 -204 -358 -271 -171 -132 -200 -152 -155 -106 71 72
388 361 395 359 4 -1 36 21 71 48 35 28 67 49 72 47 9 -3 203 143 362 273 55
44 133 103 173 129 177 117 775 576 1217 935 555 451 1219 1024 1485 1280 75
73 79 79 35 49 -83 -56 -598 -444 -805 -608 -227 -179 -495 -396 -735 -595
-93 -78 -192 -156 -220 -175 -58 -38 -53 -33 125 131 222 204 581 551 576 556
-3 3 -105 -75 -228 -173 -122 -99 -232 -186 -243 -194 -11 -8 66 70 170 174
200 198 206 208 60 87 -49 -41 -99 -81 -110 -90 -11 -8 45 52 125 134 80 83
159 166 175 185 26 29 21 27 -30 -15 -33 -27 -87 -72 -120 -100 -33 -27 -69
-57 -80 -65 -11 -8 142 150 340 350 410 415 820 850 801 850 -15 0 -485 -418
-826 -735 -477 -444 -1279 -1235 -1572 -1550 -68 -73 -125 -131 -127 -129 -4
3 135 161 378 429 155 171 398 449 506 580 51 62 37 54 -49 -25 -27 -25 -41
-34 -30 -20 35 46 326 392 509 605 338 393 791 943 980 1190 l69 90 -85 -81
c-298 -288 -682 -687 -1253 -1304 -80 -86 -71 -71 29 50 233 280 541 671 762
966 191 254 212 287 131 202 -496 -523 -1111 -1245 -1930 -2265 -71 -90 -132
-163 -135 -163 -3 0 -1 6 4 13 33 41 155 210 182 252 l32 50 -47 -50 c-60 -64
-55 -56 91 155 117 168 372 549 390 580 13 24 -11 -2 -115 -125 -91 -108 -125
-146 -104 -115 6 8 63 87 126 175 337 470 746 1066 1008 1468 168 258 410 644
410 653 0 8 -159 -188 -325 -401 -255 -328 -719 -955 -949 -1282 -31 -46 -60
-83 -63 -83 -3 0 2 10 10 23 41 64 152 247 222 367 43 74 86 150 97 168 11 17
17 32 14 32 -11 0 -430 -569 -581 -790 -43 -63 -83 -119 -88 -125 -9 -9 52
109 105 205 l20 35 -26 -30 c-14 -16 -78 -103 -142 -192 -64 -90 -118 -163
-120 -163 -2 0 19 37 48 83 223 353 625 1057 611 1070 -2 3 54 110 125 239
261 471 598 1115 589 1124 -19 20 -942 -1467 -1221 -1968 -78 -141 -41 -58
108 240 210 420 462 952 451 952 -3 0 -165 -260 -234 -377 -24 -40 -45 -73
-46 -73 -2 0 53 120 122 268 192 408 457 1011 450 1019 -8 7 -438 -751 -597
-1049 -34 -65 -64 -118 -66 -118 -2 0 8 26 22 58 105 232 374 883 374 901 0
17 -224 -397 -420 -779 -83 -162 -149 -288 -147 -280 3 8 40 100 81 204 42
104 74 191 72 193 -6 6 -160 -301 -271 -537 -138 -295 -312 -693 -410 -942
-53 -134 -141 -344 -195 -468 -54 -124 -124 -286 -155 -360 -31 -74 -146 -317
-254 -540 -109 -223 -240 -496 -291 -607 -52 -111 -96 -201 -97 -199 -4 4 51
163 77 221 34 78 192 472 306 765 56 146 156 398 222 560 228 565 501 1303
697 1880 119 353 238 731 232 737 -5 4 -132 -280 -224 -500 -175 -419 -356
-883 -583 -1497 -70 -190 -182 -489 -248 -665 -66 -176 -133 -358 -150 -405
-64 -177 -28 -50 94 326 242 751 427 1369 604 2014 87 317 262 1012 256 1017
-8 9 -207 -543 -357 -990 -51 -152 -94 -276 -95 -274 -1 1 11 56 27 122 51
212 131 587 126 592 -6 5 -201 -584 -283 -854 -32 -106 -60 -191 -61 -189 -2
2 17 93 42 202 97 417 232 1070 249 1204 l6 45 -15 -40 c-9 -22 -45 -139 -81
-259 -35 -121 -67 -222 -70 -225 -3 -3 -3 5 0 19 13 56 47 273 43 276 -4 5
-82 -253 -159 -528 -29 -103 -54 -186 -56 -184 -1 2 8 64 22 137 32 169 81
460 96 564 6 44 13 94 15 110 5 29 5 29 -6 5 -30 -71 -214 -848 -296 -1253
-33 -166 -42 -167 -14 -1 44 256 114 765 106 772 -2 2 -7 -6 -10 -19 -3 -13
-23 -98 -45 -189 -67 -282 -203 -939 -226 -1095 -4 -27 -9 -45 -11 -39 -2 6
16 153 41 325 116 808 211 1619 261 2219 8 102 17 206 19 233 3 26 3 47 1 47
-2 0 -10 -30 -19 -67z m-139 -2365 c-3 -7 -5 -2 -5 12 0 14 2 19 5 13 2 -7 2
-19 0 -25z m-2203 -94 c3 -8 2 -12 -4 -9 -6 3 -10 10 -10 16 0 14 7 11 14 -7z
m2033 -351 c-3 -10 -5 -4 -5 12 0 17 2 24 5 18 2 -7 2 -21 0 -30z m-10 -45
c-3 -8 -6 -5 -6 6 -1 11 2 17 5 13 3 -3 4 -12 1 -19z m60 -170 c-3 -8 -6 -5
-6 6 -1 11 2 17 5 13 3 -3 4 -12 1 -19z m-10 -50 c-3 -8 -6 -5 -6 6 -1 11 2
17 5 13 3 -3 4 -12 1 -19z m-217 -866 c-18 -145 -115 -630 -127 -642 -7 -7 2
50 52 315 24 127 53 290 66 362 12 73 24 131 26 129 2 -2 -5 -76 -17 -164z
m-893 -4 c-3 -8 -6 -5 -6 6 -1 11 2 17 5 13 3 -3 4 -12 1 -19z m2043 -62 c0
-2 -8 -10 -17 -17 -16 -13 -17 -12 -4 4 13 16 21 21 21 13z m-310 -400 c0 -2
-8 -10 -17 -17 -16 -13 -17 -12 -4 4 13 16 21 21 21 13z m-64 -83 c-20 -27
-48 -67 -64 -91 -27 -43 -361 -465 -389 -492 -20 -19 236 320 374 498 58 72
107 132 110 132 3 0 -11 -21 -31 -47z m369 -11 c-6 -5 -41 -37 -80 -72 l-70
-64 71 72 c40 40 75 72 80 72 4 0 4 -4 -1 -8z m-1945 -117 c0 -5 -5 -3 -10 5
-5 8 -10 20 -10 25 0 6 5 3 10 -5 5 -8 10 -19 10 -25z m-620 -249 c104 -90
656 -624 620 -599 -104 71 -258 193 -455 362 -326 279 -367 316 -250 224 175
-139 280 -219 295 -227 8 -4 -68 75 -170 175 -102 101 -178 179 -170 174 8 -5
67 -54 130 -109z m-3183 -32 c-3 -3 -12 -4 -19 -1 -8 3 -5 6 6 6 11 1 17 -2
13 -5z m6506 -691 c-7 -2 -21 -2 -30 0 -10 3 -4 5 12 5 17 0 24 -2 18 -5z
m-4245 -110 c-15 -2 -42 -2 -60 0 -18 2 -6 4 27 4 33 0 48 -2 33 -4z m115 -10
c-13 -2 -35 -2 -50 0 -16 2 -5 4 22 4 28 0 40 -2 28 -4z m422 -28 c200 -15
702 -78 714 -91 8 -8 -202 8 -219 16 -16 9 -255 36 -645 75 -253 26 -213 25
150 0z m344 -349 c-16 -17 -398 -88 -456 -85 -10 0 83 20 207 43 235 45 256
49 249 42z m3108 -32 c-3 -3 -12 -4 -19 -1 -8 3 -5 6 6 6 11 1 17 -2 13 -5z
m-3594 -61 c-7 -2 -21 -2 -30 0 -10 3 -4 5 12 5 17 0 24 -2 18 -5z m-60 -10
c-7 -2 -19 -2 -25 0 -7 3 -2 5 12 5 14 0 19 -2 13 -5z m1286 -185 c-7 -12 -97
-135 -200 -273 -103 -137 -246 -333 -318 -435 -177 -248 -190 -264 -71 -80
116 178 103 167 -133 -112 -82 -98 -151 -178 -153 -178 -1 0 97 125 219 278
122 152 283 356 357 453 136 178 302 379 308 374 2 -2 -2 -14 -9 -27z m177
-250 c-38 -133 -144 -449 -145 -434 -1 5 37 134 84 288 47 153 85 282 86 286
0 4 3 1 6 -5 2 -7 -11 -68 -31 -135z m-3473 55 c-7 -2 -19 -2 -25 0 -7 3 -2 5
12 5 14 0 19 -2 13 -5z m3005 -425 c-8 -13 -59 -106 -113 -208 -54 -102 -120
-214 -145 -250 -26 -36 -80 -116 -120 -177 -39 -62 -74 -113 -77 -113 -2 0 4
15 15 33 11 17 44 75 73 127 63 113 369 610 376 610 3 0 -1 -10 -9 -22z m316
-112 c-3 -15 -8 -25 -11 -23 -2 3 -1 17 3 31 3 15 8 25 11 23 2 -3 1 -17 -3
-31z m3586 -116 c8 -5 11 -10 5 -10 -5 0 -17 5 -25 10 -8 5 -10 10 -5 10 6 0
17 -5 25 -10z m-4340 -164 c0 -2 -8 -10 -17 -17 -16 -13 -17 -12 -4 4 13 16
21 21 21 13z m455 -180 c-24 -75 -49 -144 -55 -154 -14 -21 -14 -21 45 156 26
79 49 141 51 139 2 -2 -16 -65 -41 -141z m-605 101 c0 -2 -10 -12 -22 -23
l-23 -19 19 23 c18 21 26 27 26 19z m-50 -60 c0 -2 -10 -12 -22 -23 l-23 -19
19 23 c18 21 26 27 26 19z m-40 -50 c0 -2 -10 -12 -22 -23 l-23 -19 19 23 c18
21 26 27 26 19z m-40 -50 c0 -2 -12 -14 -27 -28 l-28 -24 24 28 c23 25 31 32
31 24z m1507 -369 c-2 -13 -4 -5 -4 17 -1 22 1 32 4 23 2 -10 2 -28 0 -40z
m-780 -770 c-3 -8 -6 -5 -6 6 -1 11 2 17 5 13 3 -3 4 -12 1 -19z"/>
<path d="M2936 11220 c4 -8 66 -105 137 -215 688 -1063 1856 -2653 2655 -3612
78 -95 145 -173 147 -173 7 0 -124 203 -350 545 -602 906 -1621 2287 -2312
3132 -210 256 -291 352 -277 323z"/>
<path d="M5490 10798 c-1 -21 109 -556 157 -763 98 -427 281 -1127 300 -1145
17 -16 -72 431 -162 820 -110 476 -292 1148 -295 1088z"/>
<path d="M7942 10228 c-150 -383 -406 -1148 -389 -1164 9 -9 212 538 309 831
61 187 148 478 144 483 -2 2 -31 -66 -64 -150z"/>
<path d="M7964 9583 c-89 -188 -200 -442 -291 -663 -96 -233 -235 -601 -230
-606 9 -9 216 447 347 766 102 248 243 620 234 620 -2 0 -30 -53 -60 -117z"/>
<path d="M2050 8294 c334 -180 1029 -507 1555 -731 256 -109 626 -256 631
-250 11 11 -682 351 -1136 557 -382 173 -1092 470 -1124 470 -6 0 27 -21 74
-46z"/>
<path d="M8215 4754 c265 -259 776 -715 880 -785 47 -32 -300 306 -501 487
-197 178 -496 434 -523 447 -9 4 56 -62 144 -149z"/>
<path d="M9325 4693 c27 -28 457 -286 725 -435 187 -104 502 -269 507 -265 8
9 -305 201 -612 375 -214 122 -640 345 -620 325z"/>
<path d="M7545 4445 c36 -85 280 -571 401 -795 234 -434 490 -874 504 -865 5
3 23 -20 40 -50 18 -31 34 -54 37 -52 6 6 -199 415 -322 642 -167 309 -632
1110 -667 1150 -5 6 -2 -8 7 -30z"/>
<path d="M7330 4300 c-1 -18 141 -430 235 -680 144 -385 392 -986 403 -975 6
6 -91 294 -198 585 -151 412 -437 1108 -440 1070z"/>
<path d="M7920 3439 c0 -22 204 -482 344 -774 97 -201 308 -607 313 -601 6 5
-136 333 -257 591 -138 297 -399 809 -400 784z"/>
</g>
</svg>
